<svg width="18" height="18" viewBox="0 0 18 18" fill="none" xmlns="http://www.w3.org/2000/svg">
<path d="M9 8.99963C9.19404 8.99963 9.35156 8.84212 9.35156 8.64807C9.35156 8.45403 9.19404 8.29651 9 8.29651C8.80595 8.29651 8.64844 8.45403 8.64844 8.64807C8.64844 8.84212 8.80595 8.99963 9 8.99963Z" fill="black"/>
<path d="M16.5937 6.18707H14.5147L11.3166 1.78718C11.0293 1.29486 10.3965 1.11963 9.89386 1.39799C9.38437 1.68103 9.20117 2.32277 9.48434 2.83239C9.49244 2.84681 9.50137 2.86068 9.5114 2.87387L12.0198 6.18707H5.98012L8.48857 2.87387C8.49846 2.86068 8.50752 2.84681 8.51562 2.83239C8.79811 2.324 8.61697 1.68171 8.1057 1.39772C7.60417 1.1199 6.97136 1.29499 6.68352 1.78691L3.48527 6.18707H1.40625C0.630889 6.18707 0 6.81796 0 7.59332C0 8.20485 0.39688 8.73727 0.955946 8.92569C1.01555 8.97183 1.08998 8.99957 1.171 8.99957C1.18721 8.99957 1.20245 9.00053 1.21838 9.00273C1.36972 9.02305 1.48961 9.13786 1.51707 9.2881L2.71307 15.8681C2.80439 16.3697 3.24082 16.7339 3.75086 16.7339H14.2491C14.7591 16.7339 15.1956 16.3697 15.2869 15.8679L16.4829 9.28824C16.5104 9.13786 16.6304 9.02305 16.7823 9.00273C16.7977 9.00053 16.8129 8.99957 16.829 8.99957C16.9105 8.99957 16.9855 8.97155 17.0451 8.92486C17.6046 8.73521 18 8.20375 18 7.59332C18 6.81796 17.3691 6.18707 16.5937 6.18707ZM10.0894 2.47245C10.0091 2.30615 10.0714 2.10359 10.2348 2.01295C10.405 1.91861 10.6195 1.97944 10.7133 2.1485C10.7202 2.16113 10.728 2.17321 10.7364 2.18475L13.6454 6.18707H12.9016L10.0894 2.47245ZM7.2636 2.18489C7.27197 2.17335 7.27953 2.1614 7.28653 2.14904C7.3806 1.97986 7.59525 1.91888 7.76471 2.01268C7.92841 2.10359 7.99103 2.30587 7.91055 2.47245L5.09833 6.18707H4.35456L7.2636 2.18489ZM16.5937 8.29644H10.4062C10.212 8.29644 10.0547 8.45382 10.0547 8.64801C10.0547 8.84219 10.212 8.996 10.4062 8.996H15.8343C15.8159 9.04846 15.8013 9.10284 15.7912 9.15887L14.595 15.7422C14.5647 15.9094 14.4191 16.0308 14.2491 16.0308H3.75086C3.58071 16.0308 3.43528 15.9094 3.40479 15.7423L2.2088 9.1623C2.19863 9.10627 2.18408 9.05189 2.16568 8.99957H7.59374C7.78792 8.99957 7.9453 8.84219 7.9453 8.64801C7.9453 8.45382 7.78792 8.29644 7.59374 8.29644H1.40625C1.01527 8.29644 0.703124 7.97784 0.703124 7.59332C0.703124 7.20564 1.01857 6.89019 1.40625 6.89019H16.5937C16.9814 6.89019 17.2968 7.20564 17.2968 7.59332C17.2968 7.98375 16.9774 8.29644 16.5937 8.29644Z" fill="black"/>
<path d="M9 10.0543C8.41841 10.0543 7.94531 10.5274 7.94531 11.109V13.9215C7.94531 14.5031 8.41841 14.9762 9 14.9762C9.58159 14.9762 10.0547 14.5031 10.0547 13.9215V11.109C10.0547 10.5263 9.58268 10.0543 9 10.0543ZM9.35156 13.9215C9.35156 14.1154 9.19391 14.2731 9 14.2731C8.80609 14.2731 8.64844 14.1154 8.64844 13.9215V11.109C8.64844 10.9151 8.80609 10.7574 9 10.7574C9.19404 10.7574 9.35156 10.915 9.35156 11.109V13.9215Z" fill="black"/>
<path d="M12.5156 14.9762C13.0972 14.9762 13.5703 14.5031 13.5703 13.9215V11.109C13.5703 10.5263 13.0983 10.0543 12.5156 10.0543C11.934 10.0543 11.4609 10.5274 11.4609 11.109V13.9215C11.4609 14.5031 11.934 14.9762 12.5156 14.9762ZM12.1641 11.109C12.1641 10.9151 12.3217 10.7574 12.5156 10.7574C12.7097 10.7574 12.8672 10.915 12.8672 11.109V13.9215C12.8672 14.1154 12.7095 14.2731 12.5156 14.2731C12.3217 14.2731 12.1641 14.1154 12.1641 13.9215V11.109Z" fill="black"/>
<path d="M5.48437 10.0543C4.90279 10.0543 4.42969 10.5274 4.42969 11.109V13.9215C4.42969 14.5031 4.90279 14.9762 5.48437 14.9762C6.06596 14.9762 6.53906 14.5031 6.53906 13.9215V11.109C6.53906 10.5263 6.06706 10.0543 5.48437 10.0543ZM5.83593 13.9215C5.83593 14.1154 5.67828 14.2731 5.48437 14.2731C5.29046 14.2731 5.13281 14.1154 5.13281 13.9215V11.109C5.13281 10.9151 5.29046 10.7574 5.48437 10.7574C5.67842 10.7574 5.83593 10.9148 5.83593 11.109V13.9215Z" fill="black"/>
</svg>
