<svg width="19" height="18" viewBox="0 0 19 18" fill="none" xmlns="http://www.w3.org/2000/svg">
<path d="M18.0029 6.66026V3.81214C18.0029 3.08506 17.4114 2.49357 16.6844 2.49357H13.1483C11.3807 -0.828429 6.62518 -0.833949 4.85464 2.49357H1.31857C0.591495 2.49357 0 3.08506 0 3.81214V6.66026C0 7.21332 0.342442 7.68766 0.826306 7.88316V17.4726H0V18H18.0029V17.4726H17.1766V7.88316C17.6605 7.68766 18.0029 7.21336 18.0029 6.66026ZM9.00146 0.524498C11.299 0.524498 13.1682 2.39367 13.1682 4.69119C13.1682 6.98871 11.299 8.85789 9.00146 8.85789C6.70395 8.85789 4.83477 6.98871 4.83477 4.69119C4.83477 2.39367 6.70395 0.524498 9.00146 0.524498ZM0.52743 6.66026V3.81214C0.52743 3.37589 0.882319 3.021 1.31857 3.021H4.61469C4.06142 4.46932 4.25175 6.14166 5.20714 7.45141H1.31857C0.882319 7.45141 0.52743 7.09652 0.52743 6.66026ZM15.6295 17.4726H12.0781V12.251C12.0781 11.2719 12.8747 10.4753 13.8538 10.4753C14.8329 10.4753 15.6295 11.2719 15.6295 12.251V17.4726ZM16.6492 17.4726H16.1569V12.251C16.1569 10.9811 15.1238 9.94791 13.8538 9.94791C12.5839 9.94791 11.5507 10.9811 11.5507 12.251V17.4726H1.35374V7.97884H5.65443C7.49463 9.85198 10.5039 9.85641 12.3485 7.97884H16.6492V17.4726ZM16.6844 7.45141H12.7958C13.7505 6.14261 13.9419 4.47045 13.3882 3.021H16.6844C17.1206 3.021 17.4755 3.37589 17.4755 3.81214V6.66026C17.4755 7.09652 17.1206 7.45141 16.6844 7.45141Z" fill="black"/>
<path d="M12.6055 13.5519H13.1329V15.31H12.6055V13.5519Z" fill="black"/>
<path d="M10.4958 14.4785V11.2663C10.4958 10.5392 9.90429 9.94775 9.17721 9.94775H3.76226C3.03518 9.94775 2.44369 10.5392 2.44369 11.2663V14.9076C2.42105 14.952 2.40171 14.9982 2.38606 15.0462H1.91626V16.189C1.91626 16.6253 2.27115 16.9801 2.7074 16.9801H10.2321C10.6683 16.9801 11.0232 16.6253 11.0232 16.189V15.0462H10.7773C10.7293 14.836 10.6327 14.6327 10.4958 14.4785ZM10.226 15.0462H2.98328C3.19609 14.8172 3.44292 14.9451 3.56887 14.9374V14.3254C3.56887 14.083 3.76603 13.8859 4.0084 13.8859C4.21209 13.8859 4.30896 14.0144 4.4027 14.0731L4.54905 13.9994C4.709 13.9188 5.12479 13.8507 5.31804 14.1734L5.43056 14.3612C5.62725 14.3267 5.77019 14.1123 6.24632 14.3503L6.49139 14.4729C6.60237 14.2995 6.64797 13.8859 7.03233 13.8859C7.2567 13.8859 7.37178 14.0041 7.55002 14.0918L7.67762 13.8558C7.7645 13.6951 8.21148 13.412 8.59468 13.7856L8.75006 13.9371L8.92865 13.8138C9.30653 13.5529 9.72225 13.9727 9.72225 14.2024V14.7045C9.84451 14.7534 10.0644 14.6257 10.226 15.0462ZM2.97112 11.2663C2.97112 10.8301 3.32601 10.4752 3.76226 10.4752H9.17721C9.61346 10.4752 9.96835 10.8301 9.96835 11.2663V13.5635C9.66838 13.2426 9.22408 13.1012 8.81019 13.2791C8.33888 12.9394 7.74429 13.0444 7.36647 13.4101C6.97093 13.285 6.53215 13.3686 6.25138 13.7773C6.09413 13.7225 5.89136 13.6851 5.6468 13.7348C5.318 13.3724 4.81318 13.3503 4.45622 13.4688C3.82496 13.1361 3.04148 13.592 3.04148 14.3255V14.4148C3.01764 14.4216 2.99422 14.4294 2.97115 14.4379V11.2663H2.97112ZM10.4958 16.189C10.4958 16.3344 10.3775 16.4527 10.2321 16.4527H2.7074C2.56197 16.4527 2.44369 16.3344 2.44369 16.189V15.5737H10.4958V16.189Z" fill="black"/>
<path d="M6.24747 7.11707C6.83527 7.56134 7.61892 7.70796 8.05117 7.13605C8.66717 6.321 7.71052 4.75418 5.62201 5.06888L5.36694 5.10724C5.4622 5.82578 5.66888 6.67972 6.24747 7.11707ZM6.56551 6.69628C6.2443 6.45352 6.05942 5.92581 5.97412 5.56575C8.33 5.45967 8.0223 7.79745 6.56551 6.69628Z" fill="black"/>
<path d="M9.95161 7.13615C10.3857 7.71056 11.1714 7.55852 11.7553 7.11716C12.3346 6.67933 12.5408 5.82408 12.6358 5.10734L12.3808 5.06898C10.3217 4.75885 9.32668 6.30928 9.95161 7.13615ZM10.7801 5.82686C11.0932 5.59018 11.6358 5.54936 12.0286 5.56634C11.9432 5.92654 11.7583 6.4538 11.4373 6.69641C10.4611 7.43429 9.78596 6.57824 10.7801 5.82686Z" fill="black"/>
<path d="M1.58228 5.69312H3.37554V6.22054H1.58228V5.69312Z" fill="black"/>
<path d="M14.6274 5.69312H16.4207V6.22054H14.6274V5.69312Z" fill="black"/>
<path d="M1.58228 4.25159H3.37554V4.77901H1.58228V4.25159Z" fill="black"/>
<path d="M14.6274 4.25159H16.4207V4.77901H14.6274V4.25159Z" fill="black"/>
<path d="M8.3667 5.2824C8.4546 5.29288 8.72004 5.30631 8.72004 5.30631V8.38298H9.24747V5.30631H9.32571C10.2254 5.30631 10.9573 4.57441 10.9573 3.67476V1.9002C10.7895 1.9098 10.4081 1.85794 9.91871 2.03023C9.63931 1.67211 9.3236 1.43325 8.98375 1.21265C8.66037 1.4226 8.3367 1.66142 8.04936 2.02949C7.56149 1.85836 7.17597 1.90945 7.01025 1.9002V3.67472C7.01025 4.47782 7.59275 5.19013 8.3667 5.2824ZM10.4298 2.4456V3.67476C10.4298 4.28355 9.93453 4.77888 9.32571 4.77888H8.89413V4.46302C8.89413 3.36677 9.51333 2.57299 10.4298 2.4456ZM8.98375 1.85108C9.10334 1.94289 9.2788 2.09064 9.43474 2.27162C9.26797 2.3828 9.11723 2.51687 8.98485 2.67074C8.85155 2.51512 8.70007 2.38115 8.53375 2.27053C8.68945 2.09001 8.86445 1.94268 8.98375 1.85108ZM7.53768 2.44528C8.00541 2.50924 8.3995 2.74638 8.67531 3.13017C8.28836 3.87666 8.37995 4.59632 8.36673 4.74361C7.8911 4.62058 7.53772 4.18679 7.53772 3.67476V2.44528H7.53768Z" fill="black"/>
</svg>
