<svg width="40" height="38" viewBox="0 0 40 38" fill="none" xmlns="http://www.w3.org/2000/svg">
<path d="M19.1258 6.11052L20 7.68465L20.8742 6.11052C22.6287 2.95134 25.6787 1 29.0909 1C34.4151 1 39 6.04509 39 12.5C39 15.3625 37.8515 18.2988 36.0327 21.1406C34.2182 23.9759 31.7815 26.6467 29.3161 28.958C26.8544 31.2658 24.3884 33.1927 22.5358 34.5436C21.6104 35.2183 20.8402 35.7478 20.303 36.1076C20.1926 36.1815 20.0921 36.2482 20.0021 36.3075C19.9117 36.2475 19.8107 36.18 19.6998 36.1052C19.1624 35.7427 18.392 35.2095 17.4665 34.5306C15.6135 33.1714 13.1471 31.2345 10.6849 28.9198C8.21905 26.6016 5.78181 23.9272 3.96686 21.0961C2.1473 18.2577 1 15.335 1 12.5C1 6.04509 5.58489 1 10.9091 1C14.3213 1 17.3713 2.95134 19.1258 6.11052Z" stroke="black" stroke-width="2"/>
</svg>
