<svg width="10" height="18" viewBox="0 0 10 18" fill="none" xmlns="http://www.w3.org/2000/svg">
<path d="M9.65311 9.09538C9.6002 9.04247 9.52718 9.01455 9.45258 9.01853C8.5729 9.0656 7.73323 9.44673 7.08822 10.0917C6.46859 10.7114 6.09337 11.5108 6.02298 12.3526L5.81001 12.5656C5.59805 12.7775 5.41538 13.011 5.26375 13.2609V9.54548H5.31592C5.73428 9.54548 6.12634 9.35993 6.39159 9.03639C6.65685 8.71284 6.7619 8.29199 6.67988 7.88175L6.61881 7.57645L6.85267 7.78198C7.16693 8.05816 7.58388 8.17759 7.99672 8.10963C8.40953 8.04171 8.76626 7.79495 8.97544 7.43263L9.29128 6.88556C9.50046 6.52324 9.5358 6.09093 9.38821 5.69943C9.24062 5.30793 8.92872 5.00657 8.5324 4.87248L8.23747 4.77271L8.5324 4.67293C8.92872 4.53888 9.24066 4.23745 9.38821 3.84595C9.53576 3.45449 9.50043 3.02217 9.29125 2.65985L8.9754 2.11275C8.76622 1.75043 8.40949 1.50367 7.99669 1.43575C7.58392 1.36779 7.16686 1.48725 6.85263 1.76344L6.61874 1.969L6.67981 1.66366C6.76183 1.25343 6.65678 0.832605 6.39156 0.509062C6.12638 0.185555 5.73431 0 5.31592 0H4.6842C4.26584 0 3.87378 0.185555 3.60852 0.509098C3.3433 0.832641 3.23822 1.25346 3.32028 1.6637L3.38134 1.96903L3.14745 1.76351C2.83322 1.48732 2.4162 1.36789 2.00339 1.43582C1.59055 1.50374 1.23382 1.7505 1.02468 2.11282L0.708834 2.65992C0.399424 3.19577 0.484291 3.88044 0.915201 4.32485C0.966916 4.37818 1.03568 4.40497 1.10452 4.40497C1.17065 4.40497 1.23681 4.38026 1.28803 4.33062C1.39259 4.22926 1.39515 4.06234 1.2938 3.95779C1.02612 3.6817 0.973349 3.25642 1.16551 2.92363L1.48136 2.37653C1.61122 2.1516 1.83271 1.99839 2.08903 1.9562C2.34532 1.91401 2.60425 1.98819 2.79933 2.15965L3.55171 2.82083L3.80128 4.0686C3.79777 4.07457 3.79432 4.08059 3.79091 4.0866L1.46772 4.87252C1.07144 5.00657 0.759494 5.30796 0.611908 5.69946C0.464322 6.09096 0.499654 6.52328 0.708834 6.8856L1.02468 7.43266C1.23386 7.79498 1.59059 8.04175 2.00339 8.10967C2.0794 8.12218 2.15551 8.12834 2.2311 8.12834C2.56624 8.12834 2.89105 8.00733 3.14745 7.78201L3.38131 7.57649L3.32024 7.88178C3.23822 8.29202 3.34327 8.71288 3.60852 9.03642C3.87374 9.35997 4.26584 9.54552 4.6842 9.54552H4.73637V14.67C4.58474 14.4201 4.40207 14.1866 4.19011 13.9747L3.97713 13.7617C3.90679 12.9199 3.53156 12.1205 2.9119 11.5008C2.26689 10.8558 1.42722 10.4747 0.547537 10.4276C0.47276 10.4237 0.399916 10.4515 0.347006 10.5044C0.294096 10.5574 0.266146 10.6303 0.270154 10.705C0.317193 11.5846 0.698357 12.4243 1.34337 13.0693C1.96303 13.689 2.76245 14.0642 3.60423 14.1345L3.81721 14.3475C4.40991 14.9402 4.73637 15.7283 4.73637 16.5665V17.7363C4.73637 17.8819 4.85442 18 5.00004 18C5.14566 18 5.26371 17.8819 5.26371 17.7363V15.1575C5.26371 14.3192 5.59014 13.5312 6.18287 12.9384L6.39585 12.7255C7.23767 12.6551 8.03705 12.2799 8.65671 11.6602C9.30172 11.0152 9.68285 10.1756 9.72993 9.29587C9.73394 9.22117 9.70599 9.14829 9.65311 9.09538ZM7.20082 2.15961C7.39594 1.98816 7.6549 1.91401 7.91112 1.95616C8.16744 1.99835 8.38889 2.15156 8.5188 2.37649L8.83464 2.92359C8.96451 3.14852 8.98644 3.41694 8.89483 3.66001C8.80321 3.90308 8.60953 4.09022 8.36347 4.17347L7.41471 4.49441L7.3116 4.45954C7.17372 4.41292 7.02402 4.48685 6.97733 4.6248C6.93068 4.76276 7.00465 4.91238 7.1426 4.95907L8.36347 5.37209C8.60953 5.4553 8.80317 5.64244 8.89483 5.88551C8.98648 6.12858 8.96451 6.397 8.83464 6.62193L8.5188 7.16903C8.38893 7.39396 8.16744 7.54717 7.91112 7.58936C7.65487 7.63154 7.3959 7.5574 7.20082 7.38591L5.63493 6.00975C6.08342 5.77863 6.39103 5.31109 6.39103 4.77278C6.39103 4.51596 6.32079 4.27532 6.1989 4.06863L6.44848 2.82083L7.20082 2.15961ZM5.00008 3.90916C5.47627 3.90916 5.86365 4.29659 5.86365 4.77274C5.86365 5.2489 5.47623 5.63632 5.00008 5.63632C4.52392 5.63632 4.1365 5.2489 4.1365 4.77274C4.1365 4.29659 4.52388 3.90916 5.00008 3.90916ZM4.01637 0.843434C4.18104 0.642551 4.42446 0.527344 4.68423 0.527344H5.31595C5.57572 0.527344 5.81911 0.642551 5.98382 0.843434C6.14849 1.04432 6.21374 1.3056 6.16276 1.5603L5.75386 3.60471C5.53649 3.46395 5.27777 3.38182 5.00008 3.38182C4.72238 3.38182 4.46366 3.46395 4.24629 3.60471L3.83739 1.5603C3.78645 1.3056 3.85166 1.04432 4.01637 0.843434ZM2.79933 7.38587C2.60421 7.55733 2.34529 7.63147 2.08903 7.58932C1.83271 7.54713 1.61126 7.39392 1.48136 7.16899L1.16551 6.62193C1.03565 6.39696 1.01371 6.12854 1.10533 5.88551C1.19694 5.64247 1.39062 5.4553 1.63668 5.37209L3.61088 4.70422C3.60979 4.72693 3.60915 4.74979 3.60915 4.77278C3.60915 5.31109 3.91677 5.77863 4.36526 6.00975L2.79933 7.38587ZM4.01637 8.70205C3.85166 8.50117 3.78645 8.23989 3.83739 7.98518L4.03381 7.00302L4.98921 6.16338C4.99283 6.16342 4.99642 6.16366 5.00008 6.16366C5.00373 6.16366 5.00732 6.16342 5.01094 6.16338L5.96631 7.00298L6.16276 7.98514C6.2137 8.23985 6.14849 8.50113 5.98378 8.70202C5.81911 8.9029 5.57569 9.01811 5.31592 9.01811H4.6842C4.42446 9.01814 4.18104 8.90293 4.01637 8.70205ZM1.71631 12.6965C1.24033 12.2205 0.932111 11.6227 0.830017 10.9874C1.46536 11.0895 2.06316 11.3978 2.5391 11.8737C3.01505 12.3497 3.3233 12.9474 3.42539 13.5828C2.79005 13.4807 2.19229 13.1725 1.71631 12.6965ZM8.28384 11.2874C7.80786 11.7634 7.2101 12.0716 6.57476 12.1737C6.67689 11.5384 6.9851 10.9406 7.46105 10.4646C7.93699 9.98866 8.53479 9.68045 9.17013 9.57832C9.06804 10.2137 8.75983 10.8114 8.28384 11.2874Z" fill="black"/>
</svg>
