<svg width="30" height="30" viewBox="0 0 30 30" fill="none" xmlns="http://www.w3.org/2000/svg">
<path d="M5 14.0001C5.20313 14.0013 5.38672 13.8795 5.4646 13.6917C5.54249 13.5042 5.49927 13.2882 5.35499 13.1451C5.21119 13.0032 4.9961 12.9617 4.81006 13.0401C4.74878 13.0643 4.69287 13.0999 4.64502 13.1451C4.45166 13.3424 4.45166 13.6578 4.64502 13.8551C4.69287 13.9002 4.74878 13.9359 4.81006 13.96C4.87012 13.9857 4.93457 13.9993 5 14.0001Z" fill="#9E1AEF"/>
<path d="M11.5 0H2.5C1.11987 0.00170899 0.00170899 1.11987 0 2.5V11.5C0.00170899 12.8801 1.11987 13.9983 2.5 14H3.5C3.77612 14 4 13.7761 4 13.5C4 13.2239 3.77612 13 3.5 13H2.5C1.67163 13 1 12.3284 1 11.5V2.5C1 1.67163 1.67163 1 2.5 1H11.5C12.3284 1 13 1.67163 13 2.5V11.5C13 12.3284 12.3284 13 11.5 13H6.5C6.22388 13 6 13.2239 6 13.5C6 13.7761 6.22388 14 6.5 14H11.5C12.8801 13.9983 13.9983 12.8801 14 11.5V2.5C13.9983 1.11987 12.8801 0.00170899 11.5 0Z" fill="#9E1AEF"/>
<path d="M27.5 0H18.5C17.1199 0.00170899 16.0017 1.11987 16 2.5V11.5C16.0017 12.8801 17.1199 13.9983 18.5 14H27.5C28.8801 13.9983 29.9983 12.8801 30 11.5V2.5C29.9983 1.11987 28.8801 0.00170899 27.5 0ZM29 11.5C29 12.3284 28.3284 13 27.5 13H18.5C17.6716 13 17 12.3284 17 11.5V2.5C17 1.67163 17.6716 1 18.5 1H27.5C28.3284 1 29 1.67163 29 2.5V11.5Z" fill="#9E1AEF"/>
<path d="M27.5 16H18.5C17.1199 16.0017 16.0017 17.1199 16 18.5V27.5C16.0017 28.8801 17.1199 29.9983 18.5 30H27.5C28.8801 29.9983 29.9983 28.8801 30 27.5V18.5C29.9983 17.1199 28.8801 16.0017 27.5 16ZM29 27.5C29 28.3284 28.3284 29 27.5 29H18.5C17.6716 29 17 28.3284 17 27.5V18.5C17 17.6716 17.6716 17 18.5 17H27.5C28.3284 17 29 17.6716 29 18.5V27.5Z" fill="#9E1AEF"/>
<path d="M11.5 16H2.5C1.11987 16.0017 0.00170899 17.1199 0 18.5V27.5C0.00170899 28.8801 1.11987 29.9983 2.5 30H11.5C12.8801 29.9983 13.9983 28.8801 14 27.5V18.5C13.9983 17.1199 12.8801 16.0017 11.5 16ZM13 27.5C13 28.3284 12.3284 29 11.5 29H2.5C1.67163 29 1 28.3284 1 27.5V18.5C1 17.6716 1.67163 17 2.5 17H11.5C12.3284 17 13 17.6716 13 18.5V27.5Z" fill="#9E1AEF"/>
</svg>
