<svg width="40" height="40" viewBox="0 0 40 40" fill="none" xmlns="http://www.w3.org/2000/svg">
<g clip-path="url(#clip0)">
<path d="M39.5746 16.255L20.614 2.37237C20.2484 2.10472 19.7517 2.10472 19.3862 2.37237L0.425436 16.255C-0.0376892 16.5941 -0.138314 17.2444 0.200826 17.7075C0.539967 18.1707 1.19036 18.2711 1.6534 17.9321L20 4.49901L38.3467 17.9321C38.5317 18.0676 38.7467 18.1328 38.9598 18.1328C39.2798 18.1328 39.5956 17.9856 39.7992 17.7075C40.1384 17.2444 40.0378 16.5941 39.5746 16.255Z" fill="black"/>
<path d="M34.5506 18.1675C33.9767 18.1675 33.5113 18.6328 33.5113 19.2068V35.7497H25.197V26.7195C25.197 23.8539 22.8656 21.5226 20.0002 21.5226C17.1347 21.5226 14.8033 23.854 14.8033 26.7195V35.7497H6.48899V19.2069C6.48899 18.6329 6.0236 18.1676 5.4497 18.1676C4.87579 18.1676 4.4104 18.6329 4.4104 19.2069V36.7891C4.4104 37.3631 4.87579 37.8284 5.4497 37.8284H15.8426C16.3892 37.8284 16.8364 37.4062 16.8778 36.8701C16.8803 36.8458 16.8819 36.8192 16.8819 36.7891V26.7196C16.8819 25.0001 18.2807 23.6013 20.0002 23.6013C21.7196 23.6013 23.1184 25.0002 23.1184 26.7196V36.7891C23.1184 36.819 23.12 36.8451 23.1225 36.8691C23.1634 37.4056 23.6109 37.8284 24.1577 37.8284H34.5506C35.1246 37.8284 35.5899 37.3631 35.5899 36.7891V19.2069C35.5899 18.6328 35.1245 18.1675 34.5506 18.1675Z" fill="black"/>
</g>
<defs>
<clipPath id="clip0">
<rect width="40" height="40" fill="white"/>
</clipPath>
</defs>
</svg>
