<svg width="30" height="30" viewBox="0 0 30 30" fill="none" xmlns="http://www.w3.org/2000/svg">
<path d="M6.57113 10.9927C4.35853 10.9927 2.56738 12.7838 2.56738 14.9964C2.56738 17.209 4.35853 19.0002 6.57113 19.0002C8.78373 19.0002 10.5749 17.209 10.5749 14.9964C10.5679 12.7908 8.7767 10.9997 6.57113 10.9927ZM6.57113 17.5953C5.13821 17.5953 3.97221 16.4364 3.97221 14.9964C3.97221 13.5635 5.13119 12.3975 6.57113 12.3975C8.00405 12.3975 9.17005 13.5565 9.17005 14.9964C9.16303 16.4293 8.00405 17.5883 6.57113 17.5953Z" fill="black"/>
<path d="M26.7304 12.1167H12.4363C12.05 12.1167 11.7339 12.4328 11.7339 12.8191C11.7339 13.2054 12.05 13.5215 12.4363 13.5215H26.7304C27.1167 13.5215 27.4328 13.2054 27.4328 12.8191C27.4328 12.4328 27.1167 12.1167 26.7304 12.1167Z" fill="black"/>
<path d="M20.1347 16.4714H12.4363C12.05 16.4714 11.7339 16.7875 11.7339 17.1738C11.7339 17.5602 12.0429 17.8763 12.4363 17.8763H20.1347C20.521 17.8763 20.8371 17.5602 20.8371 17.1738C20.8371 16.7875 20.521 16.4714 20.1347 16.4714Z" fill="black"/>
<path d="M6.57113 0C4.35853 0 2.56738 1.79115 2.56738 4.00374C2.56738 6.21634 4.35853 8.00749 6.57113 8.00749C8.78373 8.00749 10.5749 6.21634 10.5749 4.00374C10.5679 1.79115 8.7767 0 6.57113 0ZM6.57113 6.59564C5.13821 6.59564 3.97221 5.43666 3.97221 3.99672C3.97221 2.55678 5.13119 1.3978 6.57113 1.3978C8.00405 1.3978 9.17005 2.55678 9.17005 3.99672C9.16303 5.43666 8.00405 6.59564 6.57113 6.59564Z" fill="black"/>
<path d="M26.7304 1.08862H12.4363C12.05 1.08862 11.7339 1.40471 11.7339 1.79104C11.7339 2.17736 12.05 2.49345 12.4363 2.49345H26.7304C27.1167 2.49345 27.4328 2.17736 27.4328 1.79104C27.4328 1.40471 27.1167 1.08862 26.7304 1.08862Z" fill="black"/>
<path d="M20.1347 5.51392H12.4363C12.05 5.51392 11.7339 5.83 11.7339 6.21633C11.7339 6.60265 12.0429 6.91874 12.4363 6.91874H20.1347C20.521 6.91874 20.8371 6.60265 20.8371 6.21633C20.8371 5.83 20.521 5.51392 20.1347 5.51392Z" fill="black"/>
<path d="M6.57113 21.9924C4.35853 21.9924 2.56738 23.7836 2.56738 25.9962C2.56738 28.2088 4.35853 29.9999 6.57113 29.9999C8.78373 29.9999 10.5749 28.2088 10.5749 25.9962C10.5679 23.7836 8.7767 21.9924 6.57113 21.9924ZM6.57113 28.5881C5.13821 28.5881 3.97221 27.4291 3.97221 25.9892C3.97221 24.5562 5.13119 23.3902 6.57113 23.3902C8.00405 23.3902 9.17005 24.5492 9.17005 25.9892C9.16303 27.4291 8.00405 28.5881 6.57113 28.5881Z" fill="black"/>
<path d="M26.7304 23.0742H12.4363C12.05 23.0742 11.7339 23.3903 11.7339 23.7766C11.7339 24.163 12.05 24.479 12.4363 24.479H26.7304C27.1167 24.479 27.4328 24.163 27.4328 23.7766C27.4328 23.3903 27.1167 23.0742 26.7304 23.0742Z" fill="black"/>
<path d="M20.1347 27.4995H12.4363C12.05 27.4995 11.7339 27.8156 11.7339 28.2019C11.7339 28.5882 12.05 28.9043 12.4363 28.9043H20.1347C20.521 28.9043 20.8371 28.5882 20.8371 28.2019C20.8371 27.8156 20.521 27.4995 20.1347 27.4995Z" fill="black"/>
</svg>
