<svg width="20" height="20" viewBox="0 0 20 20" fill="none" xmlns="http://www.w3.org/2000/svg">
<path d="M18.718 3.58974H1.28207C0.573828 3.58974 0 3.01591 0 2.30771C0 1.5995 0.573828 1.02563 1.28207 1.02563H18.718C19.4262 1.02563 20 1.59946 20 2.30771C20 3.01595 19.4262 3.58974 18.718 3.58974Z" fill="#9E1AEF"/>
<path d="M11.5385 11.2822H1.28207C0.573828 11.2822 0 10.7083 0 10.0001C0 9.29188 0.573828 8.71802 1.28207 8.71802H11.5385C12.2467 8.71802 12.8205 9.29185 12.8205 10.0001C12.8205 10.7083 12.2467 11.2822 11.5385 11.2822Z" fill="#9E1AEF"/>
<path d="M18.7179 11.2822H16.6666C15.9584 11.2822 15.3845 10.7083 15.3845 10.0001C15.3845 9.29185 15.9583 8.71802 16.6666 8.71802H18.7179C19.4261 8.71802 19.9999 9.29185 19.9999 10.0001C19.9999 10.7083 19.4261 11.2822 18.7179 11.2822Z" fill="#9E1AEF" fill-opacity="0.5"/>
<path d="M18.718 18.9743H1.28207C0.573828 18.9743 0 18.4004 0 17.6922C0 16.984 0.573828 16.4102 1.28207 16.4102H18.718C19.4262 16.4102 20 16.984 20 17.6922C20 18.4004 19.4262 18.9743 18.718 18.9743Z" fill="#9E1AEF"/>
</svg>
