<svg width="18" height="18" viewBox="0 0 18 18" fill="none" xmlns="http://www.w3.org/2000/svg">
<g clip-path="url(#clip0)">
<path d="M16.626 7.87506H15.7502C15.7004 7.69448 15.593 7.53506 15.4445 7.42089C15.296 7.30672 15.1143 7.24401 14.927 7.24224H13.9922V4.95624C13.9932 4.91348 13.9829 4.87121 13.9622 4.83375C13.9416 4.7963 13.9113 4.76503 13.8746 4.74313L7.28005 0.934228C7.24288 0.912625 7.20066 0.901245 7.15767 0.901245C7.11468 0.901245 7.07246 0.912625 7.03529 0.934228L0.438751 4.74313C0.401426 4.76476 0.370464 4.79585 0.348985 4.83327C0.327506 4.87069 0.31627 4.9131 0.316408 4.95624V12.5741C0.316409 12.6173 0.32778 12.6597 0.349379 12.6971C0.370979 12.7345 0.402044 12.7656 0.439454 12.7872L7.03666 16.5961C7.07408 16.6177 7.11651 16.6291 7.15971 16.6291C7.20403 16.6291 7.24761 16.6177 7.28627 16.5961L10.7578 14.5937V16.0412C10.7575 16.179 10.7844 16.3156 10.8372 16.4429C10.89 16.5702 10.9674 16.6858 11.0652 16.7829C11.1629 16.8801 11.2789 16.9569 11.4066 17.0089C11.5342 17.061 11.6709 17.0872 11.8087 17.086H16.626C16.7641 17.0873 16.9012 17.0612 17.0292 17.0093C17.1573 16.9574 17.2738 16.8807 17.3721 16.7836C17.4704 16.6865 17.5485 16.5709 17.602 16.4435C17.6555 16.3161 17.6832 16.1794 17.6836 16.0412V8.93614C17.6834 8.65537 17.5721 8.3861 17.3738 8.18724C17.1756 7.98838 16.9067 7.87613 16.626 7.87506ZM14.9357 7.73443C15.0305 7.73443 15.1213 7.77207 15.1883 7.83906C15.2553 7.90605 15.293 7.99691 15.293 8.09165V8.11549C15.293 8.21023 15.2553 8.30109 15.1883 8.36808C15.1213 8.43508 15.0305 8.47271 14.9357 8.47271H13.5057C13.4109 8.47271 13.3201 8.43508 13.2531 8.36808C13.1861 8.30109 13.1484 8.21023 13.1484 8.11549V8.09165C13.1484 7.99691 13.1861 7.90605 13.2531 7.83906C13.3201 7.77207 13.4109 7.73443 13.5057 7.73443H14.9357ZM7.15971 1.43151L9.90098 3.01418L3.79638 6.53866L1.05515 4.956L7.15971 1.43151ZM6.92578 15.9567L0.808595 12.432V5.38195L6.92578 8.90668V15.9567ZM7.15971 8.48045L4.28857 6.82279L10.3932 3.29835L13.2645 4.956L7.15971 8.48045ZM10.7578 8.93614V14.0254L7.41797 15.9567V8.90668L13.5 5.38195V7.24224H13.5076C13.3203 7.244 13.1386 7.30671 12.9901 7.42088C12.8416 7.53505 12.7343 7.69448 12.6844 7.87506H11.8087C11.5286 7.87641 11.2606 7.98897 11.0635 8.18796C10.8664 8.38695 10.7565 8.65608 10.7578 8.93614ZM17.1914 16.0412C17.1911 16.1148 17.1761 16.1875 17.1474 16.2553C17.1187 16.323 17.0769 16.3844 17.0242 16.4358C16.9716 16.4872 16.9093 16.5276 16.841 16.5548C16.7726 16.5819 16.6995 16.5952 16.626 16.5938H11.8087C11.7355 16.595 11.6628 16.5816 11.5948 16.5544C11.5269 16.5271 11.4651 16.4866 11.413 16.4351C11.361 16.3836 11.3198 16.3222 11.2918 16.2546C11.2638 16.187 11.2496 16.1144 11.25 16.0412V8.93614C11.2493 8.86209 11.2631 8.78861 11.2908 8.71992C11.3185 8.65123 11.3595 8.58868 11.4114 8.53583C11.4632 8.48299 11.525 8.4409 11.5932 8.41197C11.6614 8.38305 11.7346 8.36785 11.8087 8.36724H12.694C12.7467 8.54144 12.8546 8.69383 13.0013 8.80159C13.148 8.90934 13.3256 8.96664 13.5076 8.9649H14.927C15.109 8.96664 15.2867 8.90934 15.4333 8.80159C15.58 8.69384 15.6878 8.54144 15.7406 8.36724H16.626C16.7762 8.36819 16.92 8.42854 17.026 8.53512C17.1319 8.64171 17.1914 8.78587 17.1914 8.93614V16.0412Z" fill="black"/>
<path d="M12.092 11.4258H12.3496C12.4148 11.4258 12.4774 11.3999 12.5236 11.3537C12.5697 11.3076 12.5957 11.245 12.5957 11.1797C12.5957 11.1144 12.5697 11.0518 12.5236 11.0057C12.4774 10.9595 12.4148 10.9336 12.3496 10.9336H12.3399V10.2656H13.0186C13.0341 10.3151 13.0653 10.3582 13.1076 10.3882C13.1498 10.4182 13.2008 10.4335 13.2526 10.4318C13.3179 10.432 13.3807 10.4062 13.4271 10.3602C13.4735 10.3142 13.4997 10.2516 13.5 10.1863V10.0207C13.4995 9.95503 13.473 9.89223 13.4265 9.84594C13.3799 9.79964 13.3169 9.77359 13.2513 9.77344H12.092C12.0597 9.7736 12.0277 9.78013 11.998 9.79265C11.9682 9.80517 11.9412 9.82344 11.9185 9.84641C11.8959 9.86937 11.8779 9.89658 11.8657 9.92649C11.8536 9.9564 11.8474 9.98841 11.8477 10.0207V11.18C11.8475 11.2122 11.8536 11.2441 11.8658 11.2739C11.878 11.3037 11.896 11.3308 11.9187 11.3537C11.9414 11.3765 11.9684 11.3947 11.9981 11.407C12.0279 11.4194 12.0598 11.4258 12.092 11.4258Z" fill="black"/>
<path d="M12.0938 13.6758H13.2539C13.3192 13.6758 13.3818 13.6499 13.4279 13.6037C13.4741 13.5576 13.5 13.495 13.5 13.4297V12.2695C13.5 12.2043 13.4741 12.1417 13.4279 12.0955C13.3818 12.0494 13.3192 12.0234 13.2539 12.0234H12.0938C12.0285 12.0234 11.9659 12.0494 11.9197 12.0955C11.8736 12.1417 11.8477 12.2043 11.8477 12.2695V13.4297C11.8477 13.495 11.8736 13.5576 11.9197 13.6037C11.9659 13.6499 12.0285 13.6758 12.0938 13.6758ZM12.3398 12.5156H13.0078V13.1836H12.3398V12.5156Z" fill="black"/>
<path d="M12.3496 15.4336H12.3399V14.7656H13.0053C13.0066 14.8303 13.0332 14.892 13.0794 14.9373C13.1256 14.9827 13.1877 15.0081 13.2524 15.0082C13.3172 15.0082 13.3794 14.9829 13.4256 14.9377C13.4719 14.8924 13.4986 14.8308 13.5 14.7661V14.529C13.4998 14.4625 13.4737 14.3986 13.4273 14.3509C13.3809 14.3033 13.3178 14.2755 13.2513 14.2734H12.092C12.0259 14.2757 11.9634 14.3036 11.9177 14.3514C11.8721 14.3992 11.8469 14.4629 11.8477 14.529V15.6883C11.8476 15.72 11.854 15.7515 11.8663 15.7808C11.8787 15.8101 11.8968 15.8366 11.9196 15.8587C11.9424 15.8809 11.9694 15.8982 11.999 15.9097C12.0286 15.9213 12.0602 15.9267 12.092 15.9258H12.3496C12.4149 15.9258 12.4775 15.8999 12.5236 15.8537C12.5698 15.8076 12.5957 15.745 12.5957 15.6797C12.5957 15.6144 12.5698 15.5518 12.5236 15.5057C12.4775 15.4595 12.4149 15.4336 12.3496 15.4336Z" fill="black"/>
<path d="M13.8178 10.0756L13.0971 10.7963L12.8779 10.577C12.855 10.5542 12.8279 10.5361 12.7981 10.5237C12.7682 10.5113 12.7362 10.505 12.7039 10.505C12.6716 10.505 12.6395 10.5113 12.6097 10.5237C12.5798 10.5361 12.5527 10.5542 12.5298 10.577C12.507 10.5999 12.4889 10.627 12.4765 10.6569C12.4641 10.6867 12.4578 10.7187 12.4578 10.7511C12.4578 10.7834 12.4641 10.8154 12.4765 10.8452C12.4889 10.8751 12.507 10.9022 12.5298 10.9251L12.9231 11.3183C12.946 11.3412 12.9731 11.3593 13.003 11.3717C13.0328 11.3841 13.0648 11.3904 13.0972 11.3904C13.1295 11.3904 13.1615 11.3841 13.1913 11.3717C13.2212 11.3593 13.2483 11.3412 13.2712 11.3183L14.166 10.4235C14.2121 10.3774 14.2381 10.3148 14.2381 10.2495C14.2381 10.1843 14.2121 10.1217 14.166 10.0755C14.1198 10.0293 14.0572 10.0034 13.992 10.0034C13.9267 10.0034 13.8641 10.0293 13.8179 10.0755L13.8178 10.0756Z" fill="black"/>
<path d="M13.8178 14.6194L13.0971 15.3401L12.8779 15.1209C12.855 15.098 12.8279 15.0799 12.7981 15.0675C12.7682 15.0551 12.7362 15.0488 12.7039 15.0488C12.6716 15.0488 12.6395 15.0551 12.6097 15.0675C12.5798 15.0799 12.5527 15.098 12.5298 15.1209C12.507 15.1437 12.4889 15.1708 12.4765 15.2007C12.4641 15.2306 12.4578 15.2626 12.4578 15.2949C12.4578 15.3272 12.4641 15.3592 12.4765 15.3891C12.4889 15.4189 12.507 15.4461 12.5298 15.4689L12.9231 15.8622C12.946 15.885 12.9731 15.9032 13.003 15.9155C13.0328 15.9279 13.0648 15.9343 13.0972 15.9343C13.1295 15.9343 13.1615 15.9279 13.1913 15.9155C13.2212 15.9032 13.2483 15.885 13.2712 15.8622L14.166 14.9674C14.2121 14.9212 14.2381 14.8586 14.2381 14.7933C14.2381 14.7281 14.2121 14.6655 14.166 14.6193C14.1198 14.5732 14.0572 14.5472 13.992 14.5472C13.9267 14.5472 13.8641 14.5732 13.8179 14.6193L13.8178 14.6194Z" fill="black"/>
<path d="M16.3426 10.3711H14.7969C14.7316 10.3711 14.669 10.397 14.6229 10.4432C14.5767 10.4893 14.5508 10.5519 14.5508 10.6172C14.5508 10.6825 14.5767 10.7451 14.6229 10.7912C14.669 10.8374 14.7316 10.8633 14.7969 10.8633H16.3426C16.4078 10.8633 16.4704 10.8374 16.5166 10.7912C16.5627 10.7451 16.5886 10.6825 16.5886 10.6172C16.5886 10.5519 16.5627 10.4893 16.5166 10.4432C16.4704 10.397 16.4078 10.3711 16.3426 10.3711Z" fill="black"/>
<path d="M16.3426 12.6211H14.7969C14.7316 12.6211 14.669 12.647 14.6229 12.6932C14.5767 12.7393 14.5508 12.8019 14.5508 12.8672C14.5508 12.9325 14.5767 12.9951 14.6229 13.0412C14.669 13.0874 14.7316 13.1133 14.7969 13.1133H16.3426C16.4078 13.1133 16.4704 13.0874 16.5166 13.0412C16.5627 12.9951 16.5886 12.9325 16.5886 12.8672C16.5886 12.8019 16.5627 12.7393 16.5166 12.6932C16.4704 12.647 16.4078 12.6211 16.3426 12.6211Z" fill="black"/>
<path d="M16.3426 14.8711H14.7969C14.7316 14.8711 14.669 14.897 14.6229 14.9432C14.5767 14.9893 14.5508 15.0519 14.5508 15.1172C14.5508 15.1825 14.5767 15.2451 14.6229 15.2912C14.669 15.3374 14.7316 15.3633 14.7969 15.3633H16.3426C16.4078 15.3633 16.4704 15.3374 16.5166 15.2912C16.5627 15.2451 16.5886 15.1825 16.5886 15.1172C16.5886 15.0519 16.5627 14.9893 16.5166 14.9432C16.4704 14.897 16.4078 14.8711 16.3426 14.8711Z" fill="black"/>
</g>
<defs>
<clipPath id="clip0">
<rect width="18" height="18" fill="white"/>
</clipPath>
</defs>
</svg>
