<svg width="18" height="18" viewBox="0 0 18 18" fill="none" xmlns="http://www.w3.org/2000/svg">
<path d="M17.9206 12.3081L16.679 11.0666C16.5731 10.9607 16.4014 10.9607 16.2955 11.0666C16.1896 11.1725 16.1896 11.3442 16.2955 11.45L16.4684 11.6229L12.3002 15.7912L10.8133 14.3042L14.9815 10.136L15.4065 10.561C15.5124 10.6669 15.6841 10.6669 15.7899 10.561C15.8958 10.4551 15.8958 10.2834 15.7899 10.1775L15.1748 9.56232C14.6874 9.06255 14.3671 8.49315 13.916 7.95885C14.4314 7.26663 13.886 6.25313 13.0274 6.29525C13.0558 5.69237 12.5406 5.17445 11.9358 5.20308C11.9641 4.60049 11.447 4.08166 10.8433 4.1112C10.8901 3.11647 9.64682 2.66905 8.9999 3.38749L8.93605 3.32364C8.52927 2.91686 7.86735 2.91686 7.46057 3.32364C7.2444 3.53981 7.14309 3.82804 7.15669 4.11175C6.55286 4.08282 6.03563 4.59843 6.06423 5.20373C5.82369 5.19231 5.58011 5.26379 5.37978 5.41752C5.01114 5.2875 4.60809 5.33465 4.25113 5.55451C3.81105 5.82556 3.53562 6.29706 3.5289 6.78855L3.22172 9.16588L0.0794234 12.3081C-0.0264745 12.414 -0.0264745 12.5857 0.0794234 12.6916L4.63108 17.2433C4.68401 17.2963 4.75343 17.3227 4.82281 17.3227C4.89219 17.3227 4.96161 17.2963 5.01454 17.2433L7.76185 14.496C7.86774 14.3901 7.86774 14.2184 7.76185 14.1125L7.30029 13.651C7.81847 13.1328 8.33819 12.8704 8.99994 12.5714C9.65658 12.8681 10.186 13.1374 10.6996 13.651L10.238 14.1125C10.1872 14.1634 10.1586 14.2324 10.1586 14.3043C10.1586 14.3762 10.1872 14.4452 10.238 14.496L12.9853 17.2433C13.0383 17.2962 13.1077 17.3227 13.1771 17.3227C13.2465 17.3227 13.3159 17.2963 13.3689 17.2433L17.9206 12.6916C17.9714 12.6408 18 12.5718 18 12.4999C18 12.428 17.9714 12.359 17.9206 12.3081ZM13.0773 6.83635C13.4284 6.83678 13.6782 7.21872 13.5355 7.54036C13.3176 7.318 13.0959 7.09934 12.8758 6.87919C12.943 6.86487 13.0101 6.85063 13.0773 6.83635ZM11.9852 5.74418C12.3395 5.74461 12.5857 6.12529 12.4435 6.44797C12.2104 6.22016 11.9469 6.01458 11.6522 5.87217C11.7474 5.78836 11.8583 5.7457 11.9852 5.74418ZM4.63191 7.75548L4.56806 7.69163C4.37272 7.49628 4.37272 7.17845 4.56806 6.9831C4.66575 6.88545 4.79403 6.8366 4.92231 6.8366C5.05059 6.8366 5.1789 6.88545 5.27655 6.9831L5.34037 7.04691L4.98612 7.40116L4.63191 7.75548ZM7.84406 3.7071C7.94175 3.60944 8.07003 3.5606 8.19831 3.5606C8.32659 3.5606 8.4549 3.60944 8.55256 3.7071L8.61641 3.77095L7.90788 4.47948L7.84403 4.41563C7.64872 4.22028 7.64872 3.90244 7.84406 3.7071ZM6.60532 5.15337C6.60532 5.01956 6.65742 4.89374 6.75208 4.79912C6.84977 4.70147 6.97804 4.65262 7.10632 4.65262C7.2346 4.65262 7.36291 4.70147 7.46057 4.79912L7.52442 4.86297L7.17017 5.21722L6.81589 5.57147L6.75204 5.50762C6.65742 5.413 6.60532 5.28718 6.60532 5.15337ZM6.0143 5.74461C6.14258 5.74461 6.27092 5.79346 6.36854 5.89111L6.43239 5.95496L5.72386 6.66349L5.66001 6.59964C5.46467 6.4043 5.46467 6.08646 5.66001 5.89111C5.75774 5.79342 5.88598 5.74461 6.0143 5.74461ZM4.53552 6.01624C4.63914 5.95247 4.81909 5.87061 5.03294 5.89187C4.98634 6.02188 4.96613 6.15931 4.97267 6.29576C4.62432 6.27905 4.27951 6.4449 4.07552 6.72803C4.10358 6.44815 4.27759 6.17511 4.53552 6.01624ZM4.82281 16.6681L0.654649 12.4999L1.14809 12.0064L5.31625 16.1746L4.82281 16.6681ZM10.2085 12.522C10.0172 12.4031 9.81426 12.3028 9.60358 12.223C9.87362 12.0286 10.1017 11.7888 10.336 11.5546C10.4419 11.4487 10.4419 11.277 10.336 11.1711C10.2301 11.0652 10.0584 11.0652 9.95251 11.1711C9.62361 11.5 9.3023 11.8183 8.87932 12.0286C8.13826 12.3991 7.51328 12.6711 6.91691 13.2674L4.6113 10.9618C4.50541 10.8559 4.33371 10.8559 4.22784 10.9618C4.12195 11.0677 4.12195 11.2394 4.22784 11.3453L7.18673 14.3042L5.69982 15.7911L1.53155 11.623L3.01846 10.1361L3.28695 10.4046C3.39284 10.5105 3.56454 10.5105 3.67041 10.4046C3.7763 10.2987 3.7763 10.127 3.67041 10.0211L3.40192 9.75261L3.67052 9.48401C3.71289 9.44164 3.74 9.38643 3.74771 9.32703L3.95448 7.72681C4.05325 7.97331 4.25677 8.14736 4.43964 8.3302C4.54568 8.43628 4.71984 8.43458 4.82364 8.33074L9.44739 3.70695C9.89922 3.25513 10.6093 3.96235 10.156 4.41563C10.1031 4.46856 10.0766 4.53798 10.0766 4.60736C10.0766 4.67674 10.1031 4.74616 10.156 4.79909C10.262 4.90499 10.4336 4.90499 10.5395 4.79909C10.9966 4.34202 11.7049 5.05058 11.2479 5.50751C11.195 5.56044 11.1685 5.62986 11.1685 5.69924C11.1685 5.63658 9.01444 5.66583 8.84021 5.66583C7.65971 5.66583 7.46371 7.41414 8.63029 7.64181L9.97482 8.04002C10.1848 8.10213 10.3778 8.21696 10.5329 8.3721L11.6422 9.48141L10.8594 10.2642C10.7535 10.3701 10.7535 10.5418 10.8594 10.6477C10.9653 10.7536 11.137 10.7536 11.2428 10.6477L12.2174 9.67314C12.2683 9.6223 12.2968 9.55332 12.2968 9.48141C12.2968 9.4095 12.2683 9.34051 12.2174 9.28968L10.9164 7.98864C10.6975 7.76976 10.4251 7.60768 10.1288 7.52004L8.771 7.11789C8.27076 6.96983 8.22383 6.20819 8.84024 6.20819H10.7669C11.2902 6.20819 11.7378 6.50813 12.0955 6.86581C12.0955 6.86581 13.2716 8.04671 13.3511 8.13572C13.8146 8.65118 14.1112 9.26553 14.5981 9.75243L11.0831 13.2674C10.81 12.9943 10.5391 12.7273 10.2085 12.522ZM13.1772 16.6681L12.6838 16.1747L16.8519 12.0065L17.3454 12.4999L13.1772 16.6681Z" fill="black"/>
<path d="M9.00016 1.77406C9.14994 1.77406 9.27131 1.65265 9.27131 1.5029V0.948531C9.27131 0.798777 9.14994 0.677368 9.00016 0.677368C8.85041 0.677368 8.729 0.798777 8.729 0.948531V1.5029C8.729 1.65265 8.85041 1.77406 9.00016 1.77406Z" fill="black"/>
<path d="M7.47079 1.87435C7.51534 1.9762 7.61487 2.03694 7.71936 2.03694C7.75562 2.03694 7.7925 2.0296 7.82786 2.01417C7.96506 1.95415 8.02765 1.79427 7.96763 1.65706L7.7455 1.14916C7.68548 1.01195 7.5256 0.949329 7.3884 1.00938C7.25119 1.0694 7.18861 1.22928 7.24862 1.36648L7.47079 1.87435Z" fill="black"/>
<path d="M6.46724 2.71873C6.51941 2.76696 6.58543 2.79079 6.65127 2.79079C6.72423 2.79079 6.79697 2.7615 6.85044 2.70373C6.95211 2.59378 6.94539 2.42222 6.83544 2.32052L6.42841 1.94415C6.31843 1.84244 6.14691 1.8492 6.04521 1.95915C5.94354 2.0691 5.95026 2.24065 6.06021 2.34236L6.46724 2.71873Z" fill="black"/>
<path d="M10.1721 2.01399C10.2075 2.02947 10.2443 2.03677 10.2806 2.03677C10.3851 2.03677 10.4847 1.97603 10.5292 1.87418L10.7513 1.36628C10.8113 1.22907 10.7487 1.06919 10.6115 1.00921C10.4744 0.949269 10.3144 1.01178 10.2544 1.14902L10.0323 1.65693C9.97231 1.7941 10.0349 1.95398 10.1721 2.01399Z" fill="black"/>
<path d="M11.3489 2.79079C11.4147 2.79079 11.4807 2.76696 11.5329 2.71873L11.94 2.34236C12.0499 2.24069 12.0567 2.06913 11.955 1.95915C11.8533 1.8492 11.6817 1.84244 11.5718 1.94415L11.1647 2.32052C11.0548 2.42219 11.048 2.59374 11.1497 2.70373C11.2032 2.7615 11.2759 2.79079 11.3489 2.79079Z" fill="black"/>
<path d="M5.77212 14.6297C5.93633 14.5909 6.03799 14.4263 5.99917 14.2621C5.96035 14.0979 5.79577 13.9962 5.63156 14.0351C5.46735 14.0739 5.3657 14.2385 5.40451 14.4027C5.44333 14.5669 5.60791 14.6685 5.77212 14.6297Z" fill="black"/>
</svg>
