<svg width="130" height="130" viewBox="0 0 130 130" fill="none" xmlns="http://www.w3.org/2000/svg">
<g clip-path="url(#clip0)">
<path d="M18.4067 1.66613L20.5121 7.58595C20.6022 7.83935 20.7807 8.04019 21.0059 8.14175L26.2653 10.5115C27.0083 10.8464 27.0083 12.0301 26.2653 12.365L21.0059 14.7347C20.7807 14.8362 20.6022 15.0371 20.5121 15.2905L18.4067 21.2103C18.1094 22.0467 17.0574 22.0467 16.7599 21.2103L14.6545 15.2902C14.5643 15.0368 14.3858 14.836 14.1606 14.7344L8.90095 12.3647C8.15802 12.0301 8.15802 10.8461 8.90095 10.5112L14.1606 8.1415C14.3858 8.03993 14.5643 7.83909 14.6545 7.5857L16.7599 1.66587C17.0572 0.829758 18.1091 0.829758 18.4067 1.66613Z" fill="black"/>
<path d="M123.556 83.1677L125.118 87.559C125.185 87.7472 125.318 87.896 125.485 87.9714L129.386 89.7292C129.937 89.9775 129.937 90.8558 129.386 91.1041L125.485 92.8619C125.318 92.937 125.185 93.0861 125.118 93.2742L123.556 97.6655C123.336 98.2858 122.556 98.2858 122.335 97.6655L120.773 93.2742C120.706 93.0863 120.574 92.9373 120.407 92.8619L116.505 91.1041C115.954 90.8558 115.954 89.9775 116.505 89.7292L120.407 87.9714C120.574 87.8962 120.706 87.7472 120.773 87.559L122.335 83.1677C122.556 82.5474 123.336 82.5474 123.556 83.1677Z" fill="black"/>
<path d="M102.534 23.0072C104.242 23.0072 105.627 21.6223 105.627 19.9139C105.627 18.2055 104.242 16.8206 102.534 16.8206C100.825 16.8206 99.4404 18.2055 99.4404 19.9139C99.4404 21.6223 100.825 23.0072 102.534 23.0072Z" fill="black"/>
<path d="M128.116 46.4493C125.573 40.2309 120.761 35.3747 114.567 32.7755C108.372 30.1762 101.535 30.145 95.3172 32.6876C93.0605 33.6103 90.4569 35.4658 87.5238 38.2342C89.2687 33.9711 90.1482 30.488 90.1482 27.8146C90.1482 13.9463 78.8656 2.6637 64.9973 2.6637C51.1289 2.6637 39.8463 13.9463 39.8463 27.8146C39.8463 30.3793 40.6575 33.691 42.2643 37.7205C39.4616 35.0875 36.9627 33.3089 34.7844 32.4058C28.5787 29.8324 21.7423 29.8296 15.5348 32.3989C9.32728 34.9672 4.49138 39.7995 1.9183 46.0052C-3.39367 58.8158 2.70719 73.5597 15.5178 78.8714C18.0391 79.9167 21.689 80.4395 26.4375 80.4395C27.721 80.4395 29.085 80.4012 30.5285 80.3247C25.2127 83.4777 21.6042 86.4109 19.7555 89.0944C11.8882 100.515 14.7792 116.207 26.1999 124.075C30.5475 127.069 35.5129 128.505 40.4311 128.505C48.4327 128.504 56.3076 124.703 61.18 117.63C62.66 115.481 63.8877 112.221 64.8581 107.882C65.812 112.382 67.0425 115.752 68.5443 117.961C73.4049 125.109 81.325 128.961 89.3794 128.961C94.2475 128.961 99.1647 127.554 103.485 124.616C114.953 116.818 117.938 101.144 110.14 89.6756C108.263 86.9151 104.543 83.882 99.0311 80.6076C100.705 80.7099 102.278 80.7627 103.741 80.7627C108.336 80.7627 111.883 80.2579 114.354 79.2479C120.572 76.7053 125.428 71.8935 128.027 65.6987C130.627 59.5039 130.658 52.6675 128.116 46.4493ZM65.0209 95.7541C49.2317 95.7541 36.3861 82.9085 36.3861 67.1193C36.3861 51.3299 49.2317 38.4843 65.0209 38.4843C80.8103 38.4843 93.6559 51.3299 93.6559 67.1193C93.6559 82.9085 80.8103 95.7541 65.0209 95.7541ZM64.9975 7.75883C76.0564 7.75883 85.0533 16.7557 85.0533 27.8146C85.0533 30.3859 83.8935 33.9853 82.0818 38.0331C77.0733 35.084 71.2418 33.3891 65.0209 33.3891C58.7844 33.3891 52.9392 35.0926 47.9223 38.0554C46.1048 33.9983 44.9414 30.3908 44.9414 27.8146C44.9414 16.7557 53.9386 7.75883 64.9975 7.75883ZM17.4696 74.1652C7.25414 69.9293 2.3893 58.1724 6.62496 47.9568C8.67678 43.0084 12.5331 39.1551 17.483 37.1066C19.9561 36.0833 22.5533 35.572 25.1512 35.572C27.7538 35.572 30.3566 36.0856 32.8332 37.1124C35.1526 38.0742 37.9547 40.4343 40.9208 43.5467C34.9675 49.632 31.2912 57.9538 31.2912 67.1193C31.2912 69.8717 31.6251 72.5471 32.2499 75.1097C26.0297 75.583 20.5664 75.449 17.4696 74.1652ZM56.9845 114.74C53.0987 120.38 46.8201 123.412 40.4389 123.412C36.5176 123.412 32.5569 122.266 29.0906 119.879C19.9835 113.605 17.6783 101.092 23.9518 91.9849C25.8099 89.2874 30.1611 86.2839 35.4697 83.3653C40.5986 92.6572 49.982 99.2854 60.9754 100.605C60.1405 106.735 58.8738 111.997 56.9845 114.74ZM105.927 92.5404C112.146 101.685 109.765 114.185 100.62 120.403C97.1748 122.746 93.2547 123.868 89.3723 123.868C82.9502 123.868 76.6333 120.795 72.7579 115.096C70.8544 112.297 69.61 106.898 68.8135 100.635C79.75 99.4053 89.1206 92.9269 94.3382 83.7837C99.6849 86.7554 104.071 89.8109 105.927 92.5404ZM123.33 63.7274C121.257 68.6674 117.385 72.5044 112.426 74.5321C109.336 75.795 103.904 75.906 97.7187 75.4094C98.3918 72.756 98.7508 69.9791 98.7508 67.1193C98.7508 58.0175 95.1255 49.7478 89.2453 43.6739C92.1825 40.6372 94.9521 38.3411 97.2456 37.4037C107.482 33.2188 119.215 38.1415 123.4 48.3775C125.427 53.336 125.403 58.7874 123.33 63.7274Z" fill="black"/>
<path d="M65.0209 86.7132C55.6037 86.7132 47.9424 79.5046 47.9424 70.6443C47.9424 69.2374 49.0829 68.0968 50.4898 68.0968C51.8967 68.0968 53.0373 69.2374 53.0373 70.6443C53.0373 76.6954 58.4132 81.6183 65.0209 81.6183C71.6288 81.6183 77.0045 76.6954 77.0045 70.6443C77.0045 69.2374 78.145 68.0968 79.5519 68.0968C80.9588 68.0968 82.0994 69.2374 82.0994 70.6443C82.0996 79.5046 74.438 86.7132 65.0209 86.7132Z" fill="black"/>
<path d="M51.9771 61.8634C54.1719 61.8634 55.9512 60.0842 55.9512 57.8893C55.9512 55.6944 54.1719 53.9152 51.9771 53.9152C49.7822 53.9152 48.0029 55.6944 48.0029 57.8893C48.0029 60.0842 49.7822 61.8634 51.9771 61.8634Z" fill="black"/>
<path d="M78.1958 61.8634C80.3907 61.8634 82.17 60.0842 82.17 57.8893C82.17 55.6944 80.3907 53.9152 78.1958 53.9152C76.001 53.9152 74.2217 55.6944 74.2217 57.8893C74.2217 60.0842 76.001 61.8634 78.1958 61.8634Z" fill="black"/>
<path d="M108.612 59.6761C107.768 59.6761 107.083 58.9918 107.083 58.1476V55.0651C107.083 54.2211 107.767 53.5366 108.612 53.5366C109.456 53.5366 110.14 54.2209 110.14 55.0651V58.1476C110.14 58.9918 109.456 59.6761 108.612 59.6761Z" fill="black"/>
<path d="M97.9113 108.655C97.0673 108.655 96.3828 107.971 96.3828 107.127V104.044C96.3828 103.2 97.0671 102.516 97.9113 102.516C98.7553 102.516 99.4399 103.2 99.4399 104.044V107.127C99.4399 107.971 98.7556 108.655 97.9113 108.655Z" fill="black"/>
<path d="M88.84 116.692C87.9961 116.692 87.3115 116.007 87.3115 115.163V112.081C87.3115 111.237 87.9958 110.552 88.84 110.552C89.684 110.552 90.3686 111.237 90.3686 112.081V115.163C90.3686 116.007 89.6843 116.692 88.84 116.692Z" fill="black"/>
</g>
<defs>
<clipPath id="clip0">
<rect width="130" height="130" fill="white"/>
</clipPath>
</defs>
</svg>
