<svg width="18" height="18" viewBox="0 0 18 18" fill="none" xmlns="http://www.w3.org/2000/svg">
<path d="M14.625 14.9766C14.4309 14.9766 14.2734 15.1341 14.2734 15.3281C14.2734 15.5222 14.4309 15.6797 14.625 15.6797C14.8191 15.6797 14.9766 15.5222 14.9766 15.3281C14.9766 15.1341 14.8191 14.9766 14.625 14.9766Z" fill="black"/>
<path d="M15.6797 1.66753V1.05469C15.6797 0.473133 15.2066 0 14.625 0H3.375C2.79345 0 2.32031 0.473133 2.32031 1.05469V1.66753C0.0271759 5.90259 0.000105469 5.77684 0 5.97618C0 5.97632 0 5.97642 0 5.97656V6.67969C0 7.28905 0.352336 7.85577 0.914062 8.17805V17.6484C0.914062 17.8426 1.07149 18 1.26562 18H16.7344C16.9285 18 17.0859 17.8426 17.0859 17.6484V8.17805C17.642 7.85605 18 7.28265 18 6.67969V5.97656C18 5.97642 18 5.97632 18 5.97618C17.9999 5.7747 17.9505 5.86129 15.6797 1.66753ZM17.0539 5.625H14.8784L13.7065 2.10938H15.1203L17.0539 5.625ZM12.1641 6.32812H14.2734V6.67969C14.2734 7.26124 13.8003 7.73438 13.2188 7.73438C12.6372 7.73438 12.1641 7.26124 12.1641 6.67969V6.32812ZM12.1103 5.625L11.5244 2.10938H12.9653L14.1372 5.625H12.1103ZM3.02344 1.05469C3.02344 0.860836 3.18115 0.703125 3.375 0.703125H14.625C14.8189 0.703125 14.9766 0.860836 14.9766 1.05469V1.40625C14.6418 1.40625 3.3608 1.40625 3.02344 1.40625V1.05469ZM11.4609 6.32812V6.67969C11.4609 7.26124 10.9878 7.73438 10.4062 7.73438C9.8247 7.73438 9.35156 7.26124 9.35156 6.67969V6.32812H11.4609ZM9.35156 5.625V2.10938H10.8116L11.3975 5.625H9.35156ZM6.60252 5.625L7.18847 2.10938H8.64844V5.625H6.60252ZM8.64844 6.32812V6.67969C8.64844 7.26124 8.1753 7.73438 7.59375 7.73438C7.0122 7.73438 6.53906 7.26124 6.53906 6.67969V6.32812H8.64844ZM3.86276 5.625L5.03462 2.10938H6.47561L5.88966 5.625H3.86276ZM5.83594 6.32812V6.67969C5.83594 7.26124 5.3628 7.73438 4.78125 7.73438C4.1997 7.73438 3.72656 7.26124 3.72656 6.67969V6.32812H5.83594ZM2.87972 2.10938H4.29346L3.12159 5.625H0.946125L2.87972 2.10938ZM0.703125 6.67969V6.32812H3.02344V6.67969C3.02344 7.23168 2.47046 7.73438 1.86328 7.73438C1.71021 7.73438 1.55159 7.70115 1.40393 7.63798C0.984762 7.4597 0.703125 7.07456 0.703125 6.67969ZM7.24219 17.2969H3.72656V14.2734H7.24219V17.2969ZM7.24219 13.5703H3.72656V10.5469H7.24219V13.5703ZM16.3828 17.2969H7.94531V10.1953C7.94531 10.0012 7.78788 9.84375 7.59375 9.84375H3.375C3.18087 9.84375 3.02344 10.0012 3.02344 10.1953V17.2969H1.61719V8.42031C1.69868 8.43138 1.78077 8.4375 1.86328 8.4375C2.32597 8.4375 2.79369 8.2542 3.14641 7.93455C3.22443 7.86389 3.29467 7.7883 3.3577 7.7091C3.67741 8.14999 4.19625 8.4375 4.78125 8.4375C5.35567 8.4375 5.86652 8.16054 6.1875 7.73314C6.50848 8.16054 7.01933 8.4375 7.59375 8.4375C8.16817 8.4375 8.67902 8.16054 9 7.73314C9.32098 8.16054 9.83183 8.4375 10.4062 8.4375C10.9807 8.4375 11.4915 8.16054 11.8125 7.73314C12.1335 8.16054 12.6443 8.4375 13.2188 8.4375C13.8038 8.4375 14.3226 8.14999 14.6423 7.7091C14.7053 7.7883 14.7756 7.86386 14.8536 7.93455C15.2063 8.2542 15.674 8.4375 16.1367 8.4375C16.2191 8.4375 16.3011 8.43159 16.3828 8.42045V17.2969ZM17.2969 6.67969C17.2969 7.08567 17.0048 7.47524 16.5701 7.64912C16.4279 7.70572 16.2821 7.73438 16.1367 7.73438C15.5295 7.73438 14.9766 7.23168 14.9766 6.67969V6.32812H17.2969V6.67969Z" fill="black"/>
<path d="M15.3281 13.5703H14.9766V10.1953C14.9766 10.0012 14.8191 9.84375 14.625 9.84375H10.4062C10.2121 9.84375 10.0547 10.0012 10.0547 10.1953V13.5703H9.70312C9.50899 13.5703 9.35156 13.7277 9.35156 13.9219C9.35156 14.116 9.50899 14.2734 9.70312 14.2734H15.3281C15.5223 14.2734 15.6797 14.116 15.6797 13.9219C15.6797 13.7277 15.5223 13.5703 15.3281 13.5703ZM14.2734 13.5703H10.7578V10.5469H14.2734V13.5703Z" fill="black"/>
<path d="M13.2188 14.9766H10.4062C10.2121 14.9766 10.0547 15.134 10.0547 15.3281C10.0547 15.5223 10.2121 15.6797 10.4062 15.6797H13.2188C13.4129 15.6797 13.5703 15.5223 13.5703 15.3281C13.5703 15.134 13.4129 14.9766 13.2188 14.9766Z" fill="black"/>
</svg>
