<svg width="18" height="18" viewBox="0 0 18 18" fill="none" xmlns="http://www.w3.org/2000/svg">
<path d="M9 18C6.59602 18 4.33593 17.0639 2.63602 15.364C0.936106 13.6641 0 11.404 0 9C0 6.59602 0.936141 4.33593 2.63602 2.63602C4.33589 0.936106 6.59602 0 9 0C11.404 0 13.6641 0.936141 15.364 2.63602C17.0639 4.33589 18 6.59602 18 9C18 11.404 17.0639 13.6641 15.364 15.364C13.6641 17.0639 11.404 18 9 18ZM9 1.125C4.65771 1.125 1.125 4.65771 1.125 9C1.125 13.3423 4.65771 16.875 9 16.875C13.3423 16.875 16.875 13.3423 16.875 9C16.875 4.65771 13.3423 1.125 9 1.125Z" fill="black"/>
<path d="M9 12.9375C8.68936 12.9375 8.4375 12.6856 8.4375 12.375C8.4375 10.9552 8.9904 9.62037 9.99439 8.61637C10.6227 7.98803 10.9688 7.15264 10.9688 6.26404C10.9688 5.29133 10.1774 4.5 9.20471 4.5H9.07654C8.10383 4.5 7.3125 5.29133 7.3125 6.26404V6.46875C7.3125 6.77939 7.06064 7.03125 6.75 7.03125C6.43936 7.03125 6.1875 6.77939 6.1875 6.46875V6.26404C6.1875 4.671 7.4835 3.375 9.07654 3.375H9.20471C10.7977 3.375 12.0938 4.671 12.0938 6.26404C12.0938 7.45312 11.6307 8.57106 10.7899 9.41189C9.99837 10.2034 9.5625 11.2557 9.5625 12.375C9.5625 12.6856 9.31064 12.9375 9 12.9375Z" fill="black"/>
<path d="M9.0009 15.1875C8.69026 15.1875 8.43823 14.9356 8.43823 14.625C8.43823 14.3144 8.68988 14.0625 9.00055 14.0625H9.0009C9.31154 14.0625 9.56339 14.3144 9.56339 14.625C9.56339 14.9356 9.31154 15.1875 9.0009 15.1875Z" fill="black"/>
</svg>
